<svg width="51" height="51" viewBox="0 0 51 51" fill="none" xmlns="http://www.w3.org/2000/svg">
<rect width="51" height="51" rx="25.5" fill="#CED8E3"/>
<g clip-path="url(#clip0_1_73)">
<path d="M25.5 15C19.7011 15 15 19.7011 15 25.5C15 30.4241 18.3902 34.556 22.9636 35.6909V28.7088H20.7985V25.5H22.9636V24.1174C22.9636 20.5436 24.581 18.8871 28.0897 18.8871C28.755 18.8871 29.9029 19.0177 30.3724 19.1479V22.0564C30.1246 22.0304 29.6941 22.0174 29.1595 22.0174C27.4379 22.0174 26.7726 22.6696 26.7726 24.3652V25.5H30.2023L29.6131 28.7088H26.7726V35.9231C31.9718 35.2952 36.0004 30.8684 36.0004 25.5C36 19.7011 31.2989 15 25.5 15Z" fill="white"/>
</g>
<defs>
<clipPath id="clip0_1_73">
<rect width="21" height="21" fill="white" transform="translate(15 15)"/>
</clipPath>
</defs>
</svg>
