<svg width="704" height="764" viewBox="0 0 704 764" fill="none" xmlns="http://www.w3.org/2000/svg">
<path opacity="0.07" d="M563.586 428.475L563.587 428.476C578.455 437.724 587.441 454.52 587.189 472.541L585.903 564.613C585.651 582.634 576.2 599.172 561.08 608.001L561.079 608.002L484.005 652.97L484.004 652.971C468.879 661.783 450.408 661.546 435.533 652.293L359.745 605.19L359.745 605.19C344.876 595.941 335.891 579.146 336.142 561.125L337.428 469.053C337.68 451.033 347.131 434.475 362.252 425.664L563.586 428.475ZM563.586 428.475L487.798 381.372C487.798 381.372 487.798 381.372 487.798 381.372C472.923 372.12 454.453 371.862 439.326 380.695C439.326 380.695 439.326 380.695 439.326 380.695L362.253 425.664L563.586 428.475Z" stroke="#265DF7" stroke-width="2"/>
<path opacity="0.07" d="M572.405 351.476L572.405 351.476L460.456 281.898C438.634 268.325 411.541 267.946 389.349 280.905C389.349 280.905 389.349 280.905 389.349 280.905L275.501 347.329C253.315 360.256 239.439 384.557 239.07 411.015L237.17 547.017C236.801 573.475 249.994 598.125 271.809 611.695L271.809 611.695L383.758 681.272C383.758 681.272 383.758 681.272 383.758 681.272C405.58 694.846 432.674 695.195 454.864 682.266L454.864 682.265L568.713 615.841L568.713 615.841C590.899 602.886 604.774 578.614 605.144 552.156L607.043 416.154C607.413 389.696 594.22 365.046 572.405 351.476Z" stroke="#265DF7" stroke-width="2"/>
<path opacity="0.07" d="M594.916 244.946L594.916 244.946L435.642 145.956C435.642 145.956 435.642 145.956 435.642 145.956C404.729 126.727 366.35 126.191 334.912 144.549L172.937 239.053C172.937 239.053 172.937 239.053 172.937 239.053C141.505 257.367 121.838 291.802 121.314 329.301L118.612 522.796C118.088 560.296 136.787 595.225 167.694 614.45L167.694 614.451L326.968 713.441C357.881 732.67 396.261 733.164 427.697 714.848L427.697 714.848L589.673 620.344L589.674 620.343C621.105 601.989 640.772 567.596 641.296 530.095L643.998 336.601C644.521 299.1 625.823 264.171 594.916 244.946Z" stroke="#265DF7" stroke-width="2"/>
<path opacity="0.07" d="M67.8555 608.036L68.3667 607.214L67.8558 608.036L279.7 739.7C320.713 765.211 371.629 765.866 413.335 741.566L413.335 741.566L628.774 615.869L628.27 615.006L628.774 615.869C670.477 591.517 696.576 545.88 697.271 496.114L700.865 238.754C701.56 188.987 676.745 142.64 635.739 117.132L635.211 117.982L635.739 117.132L423.895 -14.5311C382.883 -40.0421 331.967 -40.7531 290.259 -16.3973L74.8212 109.299C74.821 109.299 74.8208 109.299 74.8206 109.299C33.1183 133.597 7.0184 179.289 6.32343 229.055L2.72941 486.415C2.03443 536.181 26.8497 582.529 67.8555 608.036Z" stroke="#265DF7" stroke-width="2"/>
</svg>
