<svg width="51" height="51" viewBox="0 0 51 51" fill="none" xmlns="http://www.w3.org/2000/svg">
<rect width="51" height="51" rx="25.5" fill="#CED8E3"/>
<g clip-path="url(#clip0_1_65)">
<path d="M25.5 16.8908C28.3055 16.8908 28.6377 16.9031 29.741 16.9523C30.7664 16.9975 31.3201 17.1697 31.6893 17.3133C32.1773 17.502 32.5301 17.7316 32.8951 18.0967C33.2643 18.4658 33.4898 18.8145 33.6785 19.3025C33.8221 19.6717 33.9943 20.2295 34.0395 21.2508C34.0887 22.3582 34.101 22.6904 34.101 25.4918C34.101 28.2973 34.0887 28.6295 34.0395 29.7328C33.9943 30.7582 33.8221 31.3119 33.6785 31.6811C33.4898 32.1691 33.2602 32.5219 32.8951 32.8869C32.526 33.2561 32.1773 33.4816 31.6893 33.6703C31.3201 33.8139 30.7623 33.9861 29.741 34.0312C28.6336 34.0805 28.3014 34.0928 25.5 34.0928C22.6945 34.0928 22.3623 34.0805 21.259 34.0312C20.2336 33.9861 19.6799 33.8139 19.3107 33.6703C18.8227 33.4816 18.4699 33.252 18.1049 32.8869C17.7357 32.5178 17.5102 32.1691 17.3215 31.6811C17.1779 31.3119 17.0057 30.7541 16.9605 29.7328C16.9113 28.6254 16.899 28.2932 16.899 25.4918C16.899 22.6863 16.9113 22.3541 16.9605 21.2508C17.0057 20.2254 17.1779 19.6717 17.3215 19.3025C17.5102 18.8145 17.7398 18.4617 18.1049 18.0967C18.474 17.7275 18.8227 17.502 19.3107 17.3133C19.6799 17.1697 20.2377 16.9975 21.259 16.9523C22.3623 16.9031 22.6945 16.8908 25.5 16.8908ZM25.5 15C22.6494 15 22.2926 15.0123 21.1729 15.0615C20.0572 15.1107 19.2902 15.2912 18.6258 15.5496C17.9326 15.8203 17.3461 16.1771 16.7637 16.7637C16.1771 17.3461 15.8203 17.9326 15.5496 18.6217C15.2912 19.2902 15.1107 20.0531 15.0615 21.1687C15.0123 22.2926 15 22.6494 15 25.5C15 28.3506 15.0123 28.7074 15.0615 29.8271C15.1107 30.9428 15.2912 31.7098 15.5496 32.3742C15.8203 33.0674 16.1771 33.6539 16.7637 34.2363C17.3461 34.8188 17.9326 35.1797 18.6217 35.4463C19.2902 35.7047 20.0531 35.8852 21.1688 35.9344C22.2885 35.9836 22.6453 35.9959 25.4959 35.9959C28.3465 35.9959 28.7033 35.9836 29.823 35.9344C30.9387 35.8852 31.7057 35.7047 32.3701 35.4463C33.0592 35.1797 33.6457 34.8188 34.2281 34.2363C34.8105 33.6539 35.1715 33.0674 35.4381 32.3783C35.6965 31.7098 35.877 30.9469 35.9262 29.8313C35.9754 28.7115 35.9877 28.3547 35.9877 25.5041C35.9877 22.6535 35.9754 22.2967 35.9262 21.177C35.877 20.0613 35.6965 19.2943 35.4381 18.6299C35.1797 17.9326 34.8229 17.3461 34.2363 16.7637C33.6539 16.1812 33.0674 15.8203 32.3783 15.5537C31.7098 15.2953 30.9469 15.1148 29.8313 15.0656C28.7074 15.0123 28.3506 15 25.5 15Z" fill="white"/>
<path d="M25.5 20.1064C22.5223 20.1064 20.1064 22.5223 20.1064 25.5C20.1064 28.4777 22.5223 30.8936 25.5 30.8936C28.4777 30.8936 30.8936 28.4777 30.8936 25.5C30.8936 22.5223 28.4777 20.1064 25.5 20.1064ZM25.5 28.9986C23.5682 28.9986 22.0014 27.4318 22.0014 25.5C22.0014 23.5682 23.5682 22.0014 25.5 22.0014C27.4318 22.0014 28.9986 23.5682 28.9986 25.5C28.9986 27.4318 27.4318 28.9986 25.5 28.9986Z" fill="white"/>
<path d="M32.366 19.8932C32.366 20.5904 31.8 21.1523 31.1068 21.1523C30.4096 21.1523 29.8477 20.5863 29.8477 19.8932C29.8477 19.1959 30.4137 18.634 31.1068 18.634C31.8 18.634 32.366 19.2 32.366 19.8932Z" fill="white"/>
</g>
<defs>
<clipPath id="clip0_1_65">
<rect width="21" height="21" fill="white" transform="translate(15 15)"/>
</clipPath>
</defs>
</svg>
