<svg width="51" height="51" viewBox="0 0 51 51" fill="none" xmlns="http://www.w3.org/2000/svg">
<rect width="51" height="51" rx="25.5" fill="#CED8E3"/>
<g clip-path="url(#clip0_1_70)">
<path d="M34.4455 15H16.5504C15.6932 15 15 15.6768 15 16.5135V34.4824C15 35.3191 15.6932 36 16.5504 36H34.4455C35.3027 36 36 35.3191 36 34.4865V16.5135C36 15.6768 35.3027 15 34.4455 15ZM21.2303 32.8951H18.1131V22.8709H21.2303V32.8951ZM19.6717 21.5051C18.6709 21.5051 17.8629 20.6971 17.8629 19.7004C17.8629 18.7037 18.6709 17.8957 19.6717 17.8957C20.6684 17.8957 21.4764 18.7037 21.4764 19.7004C21.4764 20.693 20.6684 21.5051 19.6717 21.5051ZM32.8951 32.8951H29.782V28.0225C29.782 26.8617 29.7615 25.3646 28.1619 25.3646C26.5418 25.3646 26.2957 26.632 26.2957 27.9404V32.8951H23.1867V22.8709H26.1727V24.2408H26.2137C26.6279 23.4533 27.6451 22.6207 29.1586 22.6207C32.3127 22.6207 32.8951 24.6961 32.8951 27.3949V32.8951Z" fill="white"/>
</g>
<defs>
<clipPath id="clip0_1_70">
<rect width="21" height="21" fill="white" transform="translate(15 15)"/>
</clipPath>
</defs>
</svg>
