<svg width="200" height="84" viewBox="0 0 200 84" fill="none" xmlns="http://www.w3.org/2000/svg">
<path d="M70.8866 52.7243V29.3319H79.2244C80.492 29.3319 81.6398 29.6498 82.668 30.2849C83.6961 30.92 84.5103 31.7719 85.1108 32.8415C85.7112 33.9111 86.0115 35.0861 86.0115 36.3674C86.0115 37.6487 85.7027 38.8709 85.086 39.9345C84.4684 40.9981 83.643 41.8449 82.6098 42.474C81.5757 43.1039 80.4475 43.4184 79.2244 43.4184H74.9554V52.7252H70.8866V52.7243ZM74.9554 39.3406H78.7907C79.3689 39.3406 79.8967 39.1957 80.3748 38.906C80.8521 38.6163 81.2336 38.2264 81.5167 37.7361C81.8006 37.2459 81.9418 36.7 81.9418 36.0992C81.9418 35.4984 81.8006 34.9353 81.5167 34.4451C81.2336 33.9548 80.8521 33.5649 80.3748 33.276C79.8967 32.9863 79.3681 32.8415 78.7907 32.8415H74.9554V39.3414V39.3406Z" fill="#151C2D"/>
<path d="M88.3619 52.7243L88.3457 36.0152H92.4145L92.4307 37.5022C92.9978 36.9005 93.6761 36.4249 94.4656 36.0735C95.255 35.7229 96.1052 35.5472 97.017 35.5472C97.6286 35.5472 98.2401 35.6364 98.8517 35.8146L97.2505 39.9251C96.828 39.7579 96.4055 39.6748 95.9838 39.6748C95.3277 39.6748 94.7299 39.8334 94.191 40.1505C93.6513 40.4676 93.2236 40.897 92.9071 41.4369C92.5898 41.9777 92.4316 42.5759 92.4316 43.2333V52.7243H88.3628H88.3619Z" fill="#151C2D"/>
<path d="M107.521 52.7029C105.987 52.7029 104.589 52.3078 103.328 51.5167C102.066 50.7257 101.06 49.6621 100.309 48.3251C99.5591 46.9881 99.1836 45.5122 99.1836 43.8975C99.1836 42.6831 99.4008 41.5449 99.8345 40.4804C100.268 39.4168 100.865 38.4809 101.627 37.6736C102.389 36.8662 103.276 36.2337 104.287 35.7769C105.298 35.3201 106.376 35.0921 107.521 35.0921C108.822 35.0921 110.015 35.3681 111.098 35.9192C112.182 36.4711 113.102 37.2253 113.859 38.1835C114.615 39.1417 115.165 40.2336 115.509 41.4583C115.854 42.6839 115.932 43.9644 115.743 45.3014H103.553C103.709 45.9253 103.965 46.485 104.321 46.9803C104.677 47.4766 105.126 47.8717 105.671 48.1665C106.216 48.4613 106.833 48.6148 107.522 48.6259C108.234 48.637 108.881 48.4673 109.465 48.1159C110.049 47.7654 110.535 47.2889 110.924 46.6872L115.076 47.6566C114.397 49.1384 113.386 50.3494 112.041 51.2905C110.696 52.2315 109.189 52.702 107.522 52.702L107.521 52.7029ZM103.419 42.2434H111.624C111.501 41.5749 111.242 40.9707 110.848 40.4307C110.453 39.8908 109.967 39.4588 109.389 39.1357C108.81 38.8126 108.189 38.6515 107.521 38.6515C106.854 38.6515 106.238 38.81 105.67 39.1271C105.103 39.4443 104.623 39.8736 104.228 40.4136C103.834 40.9544 103.564 41.5638 103.419 42.2434Z" fill="#151C2D"/>
<path d="M121.912 60.623H117.844V35.5592H121.912V37.6813C122.457 36.9237 123.127 36.3083 123.922 35.8352C124.716 35.3621 125.648 35.1247 126.715 35.1247C127.937 35.1247 129.077 35.3535 130.133 35.8103C131.188 36.2672 132.12 36.8988 132.926 37.707C133.732 38.5144 134.361 39.4477 134.811 40.5053C135.261 41.5638 135.486 42.7002 135.486 43.9138C135.486 45.1274 135.262 46.2698 134.811 47.3395C134.361 48.4091 133.732 49.3475 132.926 50.1549C132.12 50.9631 131.189 51.5947 130.133 52.0515C129.077 52.5084 127.937 52.7363 126.715 52.7363C125.648 52.7363 124.717 52.4998 123.922 52.0267C123.126 51.5536 122.456 50.9382 121.912 50.1806V60.6238V60.623ZM126.665 39.0517C125.82 39.0517 125.064 39.272 124.397 39.7117C123.73 40.1513 123.207 40.7393 122.83 41.4746C122.452 42.21 122.263 43.0233 122.263 43.9138C122.263 44.8043 122.452 45.6211 122.83 46.3616C123.208 47.1029 123.731 47.6926 124.397 48.1331C125.064 48.5736 125.82 48.793 126.665 48.793C127.509 48.793 128.304 48.5762 129.016 48.1417C129.728 47.7071 130.295 47.1201 130.717 46.3787C131.14 45.6382 131.351 44.8163 131.351 43.9138C131.351 43.0113 131.14 42.2091 130.717 41.4746C130.295 40.7393 129.731 40.1522 129.024 39.7117C128.318 39.272 127.532 39.0517 126.665 39.0517Z" fill="#151C2D"/>
<path d="M142.405 52.7012C141.538 52.6455 140.701 52.4698 139.896 52.175C139.089 51.8801 138.375 51.4756 137.753 50.9639C137.13 50.4514 136.652 49.8386 136.319 49.1264L139.754 47.6557C139.887 47.8785 140.104 48.1151 140.404 48.3654C140.704 48.6165 141.062 48.8247 141.48 48.9919C141.896 49.159 142.355 49.243 142.855 49.243C143.278 49.243 143.681 49.1847 144.064 49.0673C144.447 48.9499 144.758 48.7699 144.998 48.5248C145.236 48.2796 145.356 47.9625 145.356 47.5726C145.356 47.1603 145.214 46.8398 144.931 46.6118C144.647 46.3838 144.292 46.2107 143.864 46.0942C143.435 45.9776 143.021 45.8687 142.622 45.7685C141.565 45.5568 140.584 45.2285 139.678 44.7829C138.773 44.3372 138.045 43.7612 137.494 43.0533C136.944 42.3462 136.669 41.4909 136.669 40.489C136.669 39.386 136.96 38.4338 137.544 37.6316C138.128 36.8294 138.889 36.2114 139.828 35.7769C140.767 35.3424 141.782 35.1256 142.871 35.1256C144.195 35.1256 145.408 35.4015 146.515 35.9526C147.621 36.5037 148.497 37.2811 149.141 38.2829L145.922 40.1882C145.767 39.9208 145.549 39.6731 145.272 39.4443C144.994 39.2163 144.678 39.0269 144.322 38.876C143.966 38.726 143.594 38.6395 143.205 38.6172C142.705 38.5949 142.249 38.6395 141.837 38.7509C141.426 38.8623 141.095 39.0517 140.845 39.3191C140.595 39.5865 140.47 39.9431 140.47 40.3887C140.47 40.8344 140.636 41.1267 140.97 41.3332C141.304 41.5389 141.706 41.6983 142.179 41.8089C142.651 41.9203 143.104 42.0429 143.538 42.1766C144.516 42.4997 145.436 42.8948 146.298 43.3627C147.159 43.8307 147.851 44.4049 148.374 45.0837C148.896 45.7633 149.146 46.5767 149.124 47.5229C149.124 48.6036 148.801 49.5472 148.157 50.3554C147.512 51.1628 146.681 51.7781 145.663 52.2015C144.646 52.6249 143.559 52.792 142.404 52.7029L142.405 52.7012Z" fill="#151C2D"/>
<path d="M160.515 40.0922H157.28V52.7243H153.212V40.0922H150.143V36.0152H153.212V29.3319H157.28V36.0152H160.515V40.0922Z" fill="#151C2D"/>
<path d="M169.252 52.7072C167.717 52.7072 166.32 52.3121 165.058 51.521C163.796 50.73 162.79 49.6664 162.039 48.3294C161.289 46.9924 160.914 45.5165 160.914 43.9018C160.914 42.6874 161.131 41.5492 161.565 40.4847C161.998 39.4211 162.595 38.4852 163.358 37.6779C164.119 36.8705 165.006 36.238 166.017 35.7812C167.029 35.3244 168.106 35.0964 169.252 35.0964C170.553 35.0964 171.745 35.3724 172.829 35.9235C173.912 36.4754 174.832 37.2296 175.589 38.1878C176.345 39.146 176.895 40.2379 177.24 41.4626C177.584 42.6882 177.662 43.9687 177.473 45.3057H165.284C165.439 45.9296 165.695 46.4893 166.051 46.9846C166.407 47.4809 166.857 47.876 167.402 48.1708C167.946 48.4656 168.563 48.619 169.252 48.6302C169.964 48.6413 170.612 48.4716 171.195 48.1202C171.779 47.7697 172.265 47.2932 172.654 46.6915L176.806 47.6609C176.128 49.1427 175.116 50.3537 173.771 51.2948C172.426 52.2358 170.92 52.7063 169.252 52.7063L169.252 52.7072ZM165.149 42.2477H173.354C173.231 41.5792 172.972 40.975 172.578 40.435C172.184 39.8951 171.697 39.4631 171.119 39.14C170.541 38.8169 169.919 38.6558 169.252 38.6558C168.584 38.6558 167.968 38.8143 167.401 39.1314C166.834 39.4485 166.353 39.8779 165.959 40.4179C165.564 40.9587 165.294 41.568 165.149 42.2477Z" fill="#151C2D"/>
<path d="M179.59 52.7243L179.574 36.0152H183.643L183.659 37.5022C184.226 36.9005 184.904 36.4249 185.694 36.0735C186.483 35.7229 187.333 35.5472 188.245 35.5472C188.857 35.5472 189.468 35.6364 190.08 35.8146L188.479 39.9251C188.056 39.7579 187.634 39.6748 187.212 39.6748C186.556 39.6748 185.958 39.8334 185.419 40.1505C184.879 40.4676 184.452 40.897 184.135 41.4369C183.818 41.9777 183.66 42.5759 183.66 43.2333V52.7243H179.591H179.59Z" fill="#151C2D"/>
<path d="M53.6149 25.3208L44.4799 20.0354C41.7753 18.4704 38.6953 17.6433 35.5725 17.6433C32.4505 17.6433 29.3713 18.4695 26.6676 20.0328L18.76 24.6052C16.2223 26.0725 14.645 28.8082 14.645 31.7445V48.014C14.645 50.9494 16.2214 53.6851 18.7583 55.1524L32.8209 63.2884C34.0696 64.0109 35.4921 64.3931 36.9341 64.3931C38.3762 64.3931 39.7961 64.0117 41.044 63.291L42.1029 62.679C43.9872 61.5906 45.1582 59.5602 45.1599 57.3807L45.1625 53.26C45.1625 52.4166 45.6149 51.6307 46.3428 51.2073L51.7408 48.0679C56.3562 45.3836 59.2224 40.3947 59.2207 35.0476C59.219 31.0477 57.0704 27.3204 53.614 25.32L53.6149 25.3208ZM50.5066 46.4233L45.4687 49.3527C44.0779 50.1617 43.2208 51.6513 43.22 53.2626L43.2174 57.9241C43.2174 59.9956 41.1843 60.9846 39.5746 61.7808C38.7064 62.2102 37.6466 62.1459 36.8153 61.4569C36.208 60.9538 35.8924 60.1773 35.8924 59.3879V42.8262C35.8924 40.5636 37.0967 38.4732 39.052 37.3419L50.498 30.7194C53.5105 28.9762 57.2774 31.1548 57.2774 34.6413C57.2774 39.4974 54.6977 43.9858 50.5066 46.4224V46.4233Z" fill="#265DF7"/>
<path d="M48.5325 37.1748L43.8589 39.7545C43.4304 39.9911 43.1644 40.4419 43.1644 40.9321V44.2763C43.1644 44.8626 43.7914 45.2337 44.3037 44.9508L48.5735 42.5948C49.7753 41.9314 50.5211 40.6656 50.5211 39.2917V38.3532C50.5211 37.3299 49.4263 36.682 48.5316 37.1756L48.5325 37.1748Z" fill="#265DF7"/>
</svg>
