<svg width="46" height="48" viewBox="0 0 46 48" fill="none" xmlns="http://www.w3.org/2000/svg">
<path d="M39.6149 8.32084L30.4799 3.03538C27.7753 1.4704 24.6953 0.643341 21.5725 0.643341C18.4505 0.643341 15.3713 1.46954 12.6676 3.03281L4.76003 7.6052C2.22225 9.07248 0.64502 11.8082 0.64502 14.7445V31.014C0.64502 33.9494 2.2214 36.6851 4.75832 38.1524L18.8209 46.2884C20.0696 47.0109 21.4921 47.3931 22.9341 47.3931C24.3762 47.3931 25.7961 47.0117 27.044 46.291L28.1029 45.679C29.9872 44.5906 31.1582 42.5602 31.1599 40.3807L31.1625 36.26C31.1625 35.4166 31.6149 34.6307 32.3428 34.2073L37.7408 31.0679C42.3562 28.3836 45.2224 23.3947 45.2207 18.0476C45.219 14.0477 43.0704 10.3204 39.614 8.31998L39.6149 8.32084ZM36.5066 29.4233L31.4687 32.3527C30.0779 33.1617 29.2208 34.6513 29.22 36.2626L29.2174 40.9241C29.2174 42.9956 27.1843 43.9846 25.5746 44.7808C24.7064 45.2102 23.6466 45.1459 22.8153 44.4569C22.208 43.9538 21.8924 43.1773 21.8924 42.3879V25.8262C21.8924 23.5636 23.0967 21.4732 25.052 20.3419L36.498 13.7194C39.5105 11.9762 43.2774 14.1548 43.2774 17.6413C43.2774 22.4974 40.6977 26.9858 36.5066 29.4224V29.4233Z" fill="#265DF7"/>
<path d="M34.5325 20.1748L29.8589 22.7545C29.4304 22.9911 29.1644 23.4419 29.1644 23.9321V27.2763C29.1644 27.8626 29.7914 28.2337 30.3037 27.9508L34.5735 25.5948C35.7753 24.9314 36.5211 23.6656 36.5211 22.2917V21.3532C36.5211 20.3299 35.4263 19.682 34.5316 20.1756L34.5325 20.1748Z" fill="#265DF7"/>
</svg>
